<svg width="2000" height="2000" viewBox="0 0 2000 2000" fill="none" xmlns="http://www.w3.org/2000/svg">
<path d="M1999.1 1799.46L200.538 0.89917L0.897491 200.54L1799.46 1999.1L1999.1 1799.46Z" fill="white"/>
<path d="M1200.54 200.54L1000 0L0.000287318 1000L200.54 1200.54L1200.54 200.54Z" fill="white"/>
<path d="M800.363 1399.28L600.722 1199.64L0.900897 1799.46L200.541 1999.1L800.363 1399.28Z" fill="white"/>
<path d="M1599.82 599.821L1000 0L799.462 200.54L1399.28 800.361L1599.82 599.821Z" fill="white"/>
<path d="M1999.1 200.54L1799.46 0.89917L1199.64 600.72L1399.28 800.361L1999.1 200.54Z" fill="white"/>
<path d="M2000 1000L1799.46 799.46L799.458 1799.46L999.998 2000L2000 1000Z" fill="white"/>
<path d="M1200.54 1799.46L600.722 1199.64L400.182 1400.18L1000 2000L1200.54 1799.46Z" fill="white"/>
</svg>
